<svg xmlns="http://www.w3.org/2000/svg" xmlns:xlink="http://www.w3.org/1999/xlink" xml:space="preserve" width="112.55mm" height="26.5982mm" version="1.1" style="shape-rendering:geometricPrecision; text-rendering:geometricPrecision; image-rendering:optimizeQuality; fill-rule:evenodd; clip-rule:evenodd" viewBox="0 0 10008 2365">
 <defs>
  <style type="text/css">
   <![CDATA[
    .fil0 {fill:#FEFEFE;fill-rule:nonzero}
   ]]>
  </style>
 </defs>
 <g id="图层_x0020_1">
  <metadata id="CorelCorpID_0Corel-Layer"/>
  <g id="_2236815906080">
   <path class="fil0" d="M0 2051l129 -191c126,97 257,172 393,223 136,52 271,77 404,77 165,0 298,-34 401,-104 103,-70 154,-160 154,-269 0,-87 -37,-159 -111,-215 -73,-56 -175,-90 -305,-101 -32,-3 -77,-6 -136,-9 -293,-21 -492,-55 -599,-104 -82,-40 -146,-91 -189,-154 -42,-63 -64,-134 -64,-212 0,-144 64,-261 192,-354 128,-93 294,-139 498,-139 149,0 296,24 440,73 145,49 283,122 413,218l-129 184c-110,-88 -225,-155 -346,-200 -122,-45 -246,-67 -374,-67 -134,0 -245,26 -332,79 -87,52 -131,117 -131,196 0,31 7,60 21,86 14,25 36,50 65,73 73,54 231,90 474,104 112,7 199,14 260,21 181,21 324,78 430,174 105,96 158,213 158,353 0,166 -73,304 -217,411 -145,107 -335,161 -570,161 -177,0 -342,-26 -494,-77 -153,-52 -297,-130 -435,-237z"/>
   <polygon class="fil0" points="2169,2365 2169,984 2387,984 2387,2365 "/>
   <polygon class="fil0" points="2841,2365 2841,988 2954,988 3829,1956 3829,988 4040,988 4040,2365 3927,2365 3052,1401 3052,2365 "/>
   <polygon class="fil0" points="4494,2365 4494,988 4607,988 5482,1956 5482,988 5693,988 5693,2365 5580,2365 4705,1401 4705,2365 "/>
   <path class="fil0" d="M6995 948l214 0 0 882c0,132 32,221 94,268 62,46 186,69 371,69 187,0 311,-23 373,-69 62,-47 94,-136 94,-268l0 -882 215 0 0 938c0,169 -54,291 -161,366 -107,76 -281,113 -523,113 -241,0 -414,-37 -519,-111 -106,-74 -158,-197 -158,-368l0 -938z"/>
   <polygon class="fil0" points="8809,2365 8809,988 8922,988 9797,1956 9797,988 10008,988 10008,2365 9896,2365 9021,1401 9021,2365 "/>
   <path class="fil0" d="M6502 2365c-7,-66 -17,-360 -17,-406l0 -311c0,-350 155,-703 380,-961 185,-215 420,-367 631,-429l-99 -258c-205,66 -489,268 -634,429 -179,202 -304,394 -400,668l-7 0c-72,-274 -274,-532 -429,-710 -86,-96 -304,-278 -515,-387l-136 258c179,76 354,218 486,366 224,248 426,595 426,1024l0 248c0,43 -13,393 -17,469l331 0z"/>
  </g>
 </g>
</svg>
